REM MD5 e2a5a2fe257991f34430a8c92278bc67
FILE "Euro Demo 25 (France).bin" BINARY
  TRACK 01 MODE2/2352
    INDEX 01 00:00:00
  TRACK 02 AUDIO
    INDEX 00 39:37:67
    INDEX 01 39:39:67
  TRACK 03 AUDIO
    INDEX 00 39:48:22
    INDEX 01 39:50:22
  TRACK 04 AUDIO
    INDEX 00 42:16:16
    INDEX 01 42:18:16
REM LEADOUT 45:19:48
